<?xml version="1.0" encoding="UTF-8"?><svg id="Layer_2" xmlns="http://www.w3.org/2000/svg" xmlns:xlink="http://www.w3.org/1999/xlink" viewBox="0 0 1379.67 511.57"><defs><linearGradient id="linear-gradient" x1="941.47" y1="388.02" x2="260.58" y2="136.85" gradientUnits="userSpaceOnUse"><stop offset="0" stop-color="#b1872f"/><stop offset="1" stop-color="#fff"/></linearGradient><linearGradient id="linear-gradient-2" x1="859.75" y1="609.54" x2="178.87" y2="358.38" xlink:href="#linear-gradient"/><linearGradient id="linear-gradient-3" x1="1002.97" y1="221.29" x2="322.08" y2="-29.88" xlink:href="#linear-gradient"/></defs><g id="Layer_1-2"><path d="M29.65,149.37l2.22,7.92-7.81-.97c-7.79,10.8-24.06,29.07-24.06,29.07,18.41,2.56,40.68-7.46,58.82-20.36l-6.73-12.85,15.09,6.46c2.84-2.32,5.53-4.69,8.02-7.04l-5.95-11.46,12.51,4.74c.3-.33.6-.66.88-.98,17.74-20.2,51.74-31.04,51.74-31.04-55.98-6.33-91.24,21.77-104.73,36.51ZM100,119.57c-1.04.38-2.08.76-3.12,1.14-1.02.43-2.06.85-3.1,1.29-2.09.81-4.12,1.83-6.2,2.77-8.25,3.91-16.39,8.69-24.44,14.04-2,1.36-3.98,2.71-5.96,4.05-1.92,1.43-3.82,2.84-5.71,4.25-.95.7-1.9,1.4-2.84,2.09-.91.74-1.82,1.47-2.72,2.2-1.82,1.45-3.63,2.89-5.43,4.32-3.49,2.99-6.92,5.93-10.29,8.81-3.24,3.02-6.46,5.96-9.65,8.81,2.67-3.32,5.45-6.7,8.34-10.12,3.03-3.28,6.16-6.61,9.46-9.9,1.72-1.57,3.45-3.16,5.19-4.76.88-.79,1.76-1.59,2.64-2.39.91-.77,1.86-1.51,2.8-2.26,1.89-1.5,3.79-3,5.71-4.52,2.01-1.39,4.03-2.8,6.06-4.21,8.25-5.47,16.84-10.06,25.59-13.39,2.2-.79,4.35-1.64,6.57-2.25,1.1-.33,2.19-.65,3.28-.97,1.11-.26,2.2-.53,3.3-.79,4.38-.98,8.75-1.68,13.04-1.71-4.21.72-8.36,2.02-12.52,3.49Z" style="fill:#b1872f;"/><path d="M70.9,168.89c-15.15,18.41-24.67,37.06-30.61,54.13l9.92,12.72-14.05.95c-8.32,32.51-4.16,56.41-4.16,56.41,19.72-10.67,36.51-17.18,52.95-54.18l-19.66-9.96,25.1-3.47c2.24-6.02,4.47-12.7,6.71-20.08l-17.35-.77,21.61-14.06c21.74-75.97,54.56-78.06,54.56-78.06,0,0-37.29-1.66-85.04,56.36ZM98.35,158.1c-7.3,10.07-14.3,20.85-20.64,32.36-12.64,23.05-22.1,46.41-29.06,68.56,3.26-22.95,10.94-47.81,23.91-71.42,6.5-11.79,14.13-22.58,22.38-32.21,8.26-9.6,17.19-18.12,26.76-24.73-8.35,8.05-16.01,17.41-23.35,27.45Z" style="fill:#b1872f;"/><path d="M278.13,116.51l6.64,18.85h-1.77c-17.23-17.16-37.52-25.74-60.87-25.74s-43.82,7.21-58.75,21.63c-14.93,14.42-22.4,31.86-22.4,52.32,0,12.65,3.32,27.19,9.97,43.62,6.64,16.43,17.14,29.95,31.48,40.54,14.34,10.6,31.7,15.89,52.08,15.89,13.37,0,26.48-2.15,39.33-6.46,12.85-4.31,22.42-10.09,28.7-17.34l1.57.48-12.45,19.09c-20.14,4.35-33.21,6.93-39.21,7.74-6,.81-14.04,1.21-24.11,1.21-37.3,0-63.99-8.64-80.06-25.92-16.07-17.28-24.11-37.96-24.11-62.05,0-16.27,4.13-31.92,12.39-46.94,8.26-15.03,20.16-26.87,35.71-35.53,15.55-8.66,33.31-12.99,53.29-12.99,9.99,0,18.63.91,25.92,2.72,7.29,1.81,13.35,3.68,18.19,5.62l7.98,3.02c.24.08.4.16.48.24Z" style="fill:#fff;"/><path d="M474.36,196.75h-97.76v68.42c0,6.44.3,10.54.91,12.31.6,1.77,1.73,3.26,3.38,4.47,1.65,1.2,4.53,1.81,8.64,1.81v1.81h-46.04v-1.81c8.38.56,12.57-3.5,12.57-12.2v-143.1c0-8.13-.67-13.28-1.99-15.46-1.33-2.17-4.86-3.38-10.57-3.62v-1.81h46.04v1.81c-5.08.32-8.5,1.29-10.27,2.9-1.77,1.62-2.66,4.92-2.66,9.91v69.6h97.76v-63.68c0-7.25-.63-12.18-1.87-14.8-1.25-2.62-4.73-3.93-10.45-3.93v-1.81h45.44v1.81c-3.59,0-6.27.42-8.02,1.27-1.75.84-2.95,2.15-3.59,3.92-.64,1.77-.96,6.28-.96,13.53v136.58c0,7,.32,11.37.96,13.1.64,1.73,1.75,3.16,3.35,4.29,1.59,1.13,4.35,1.69,8.26,1.69v1.81h-45.44v-1.81c4.91,0,8.2-1.01,9.85-3.02,1.65-2.01,2.48-7.44,2.48-16.29v-67.7Z" style="fill:#fff;"/><path d="M1128.78,101.41l-8.46,21.51h-1.81c.32-1.29.49-3.02.49-5.2,0-1.85-.66-3.04-1.99-3.57-1.33-.53-3.44-.79-6.33-.79h-46.42v152.27c0,6.28.5,10.57,1.51,12.86,1.01,2.3,2.38,3.74,4.11,4.35,1.73.61,4.53.91,8.4.91v1.81h-48.21v-1.81c6.04-.4,9.83-1.57,11.36-3.5,1.53-1.93,2.3-5.96,2.3-12.08V113.37h-44.49c-4.5,0-7.44.26-8.8.79-1.37.52-2.05,1.83-2.05,3.92,0,1.05.32,2.66.97,4.84h-1.81l-8.46-21.51h1.81c1.45,2.9,2.87,4.65,4.28,5.26,1.41.61,4.44.91,9.11.91h118.11c4.66,0,8.02-.3,10.07-.91,2.05-.6,3.56-2.36,4.52-5.26h1.81Z" style="fill:#fff;"/><path d="M1251.55,203.63h-52.24l-26.95,67.19c-1.86,4.83-2.78,7.82-2.78,8.94,0,2.66,1.97,3.99,5.92,3.99v1.81h-26.46v-1.81c3.54,0,6.52-.87,8.93-2.6,2.42-1.73,5.07-6.23,7.97-13.48l64.52-162.76h3.2l63.46,157.19c0,.81,1.63,4.62,4.88,11.43,3.25,6.81,8.21,10.22,14.88,10.22v1.81h-41.57v-1.81c3.78,0,5.68-1.49,5.68-4.47,0-2.01-.93-5.24-2.78-9.67-.32-.32-.6-.85-.84-1.57-.16-.8-.28-1.21-.36-1.21l-25.46-63.2ZM1201.02,198.68h48.14l-24.05-60.66-24.09,60.66Z" style="fill:#fff;"/><path d="M370.61,413.36c-3.31,3.81-8.44,6.91-15.26,9.19-6.88,2.31-14,3.48-21.16,3.48-10.87,0-20.24-2.86-27.87-8.49-7.65-5.65-13.32-12.96-16.87-21.72-3.56-8.81-5.37-16.7-5.37-23.45,0-10.85,4.02-20.23,11.94-27.89,7.93-7.66,18.5-11.54,31.42-11.54s23.38,4.63,32.56,13.77l.27.26h2.62l-4.12-11.7-.16-.15c-.15-.14-.34-.25-.57-.32l-4.33-1.64c-2.67-1.07-6.04-2.11-10.04-3.1-4.03-1-8.86-1.51-14.36-1.51-11,0-20.93,2.42-29.51,7.2-8.59,4.79-15.26,11.43-19.83,19.73-4.56,8.29-6.87,17.05-6.87,26.04,0,13.31,4.51,24.91,13.39,34.46,8.9,9.57,23.82,14.43,44.33,14.43,5.5,0,9.96-.22,13.27-.67,3.28-.44,10.5-1.86,21.46-4.23l.36-.08,7.65-11.73-2.57-.79-.39.45Z" style="fill:#b1872f;"/><path d="M465.37,328.56c-11.51,0-21.61,2.83-30.03,8.42-8.41,5.58-14.79,12.9-18.97,21.76-4.17,8.83-6.28,17.56-6.28,25.96,0,12.49,4.41,23.35,13.11,32.27,8.7,8.93,20.03,13.46,33.67,13.46,16.75,0,30.39-5.6,40.54-16.64,10.13-11.02,15.27-24.77,15.27-40.88,0-12.59-4.46-23.24-13.26-31.66-8.79-8.41-20.24-12.67-34.04-12.67ZM504.8,384.83c0,6.44-1.84,12.8-5.48,18.91-3.63,6.11-8.69,10.98-15.01,14.47-6.34,3.49-12.84,5.26-19.34,5.26-11.59,0-22.21-5.16-31.56-15.33-9.37-10.19-14.13-22.18-14.13-35.64,0-10.45,3.86-19.32,11.47-26.36,7.63-7.06,16.24-10.63,25.58-10.63,6.63,0,13.96,2.16,21.81,6.42,7.85,4.26,14.32,10.23,19.25,17.76,4.91,7.5,7.4,15.96,7.4,25.14Z" style="fill:#b1872f;"/><path d="M714.24,330.01h-19.55v2.84l.95-.04c5.43-.24,8.78,1.24,10.23,4.53,1.55,3.51,2.33,8.13,2.33,13.73v65.67c0,5.6-.66,7.41-1.06,7.98-.35.52-1.54,1.38-5.48,1.38h-.91v2.8h20.47v-2.68l-.77-.12c-3.29-.49-4.3-.88-4.61-1.07-.46-.28-.84-.86-1.12-1.74-.32-1-.48-2.61-.48-4.79v-69.5l77.44,82.46v-90.67c0-4.16.76-5.8,1.39-6.45.92-.94,2.71-1.46,5.31-1.54l.88-.03v-2.77h-20.6v2.8h.91c1.88,0,3.43.36,4.6,1.09.58.36,1.55,1.61,1.55,5.98v66.23l-71.46-76.1Z" style="fill:#b1872f;"/><path d="M847.88,424.95c-1.03.64-2.6,1.03-4.68,1.15l-.85.05v2.75h68.18v-15.13h-2.67l-.12.77c-.67,4.42-1.56,6.15-2.2,6.81-.94.99-2.06,1.64-3.41,1.97-1.44.35-4.88.53-10.22.53h-17.11c-3.59,0-6.29-.24-8.02-.73-1.55-.43-2.66-1.49-3.39-3.23-.78-1.88-1.18-5.05-1.18-9.44v-29.08h29.61c2.53,0,3.62.3,4.08.55.56.3.92.93,1.09,1.93l.13.75h2.66v-10.97h-2.76l-.04.87c-.03.77-.31,1.31-.86,1.7-.29.2-1.35.66-5.09.66h-28.82v-41.75h31.12c4.27,0,5.59.66,5.99,1.06.44.43,1.42,2.08,3.09,8.35l.18.67h2.59v-15.19h-62.84v2.93h.91c2.88,0,4.65.56,5.1,1.62.56,1.33.85,3.74.85,7.15v78.38c0,2.61-.47,4.33-1.32,4.86Z" style="fill:#b1872f;"/><path d="M1004.54,332.94c12.43,0,23.38,4.63,32.56,13.77l.26.26h2.62l-4.12-11.7-.16-.15c-.15-.14-.34-.25-.57-.32l-4.34-1.64c-2.67-1.07-6.04-2.11-10.04-3.1-4.03-1-8.86-1.51-14.36-1.51-11,0-20.93,2.42-29.51,7.2-8.59,4.79-15.26,11.43-19.83,19.73-4.56,8.29-6.87,17.05-6.87,26.04,0,13.31,4.51,24.91,13.39,34.46,8.9,9.57,23.82,14.43,44.33,14.43,5.5,0,9.96-.22,13.27-.67,3.28-.44,10.49-1.86,21.46-4.23l.36-.08,7.65-11.73-2.57-.79-.39.45c-3.31,3.81-8.44,6.91-15.26,9.19-6.88,2.31-14,3.48-21.16,3.48-10.87,0-20.24-2.86-27.87-8.49-7.65-5.65-13.32-12.96-16.87-21.72-3.57-8.81-5.37-16.7-5.37-23.45,0-10.85,4.02-20.23,11.94-27.89,7.93-7.66,18.5-11.54,31.42-11.54Z" style="fill:#b1872f;"/><path d="M1160.3,340.19h2.77l5.33-13.54h-2.97l-.21.62c-.43,1.29-1.04,2.04-1.86,2.28-1.03.3-2.79.46-5.24.46h-64.42c-3.16,0-4.25-.26-4.61-.42-.32-.14-.98-.63-1.88-2.44l-.25-.5h-2.88l5.33,13.54h2.82l-.35-1.16c-.4-1.36-.49-2.04-.49-2.38,0-1.09.39-1.24.54-1.3.36-.14,1.42-.37,4.48-.37h23.36v83.53c0,3.88-.57,5.41-1.06,6.02-.38.47-1.59,1.31-5.55,1.57l-.85.06v2.74h28.11v-2.8h-.91c-2,0-3.44-.15-4.28-.44-.7-.25-1.26-.86-1.71-1.88-.34-.78-.75-2.56-.75-6.65v-82.15h24.41c1.81,0,2.7.2,3.12.36.17.07.51.2.51,1.1,0,1.11-.08,1.99-.24,2.61l-.28,1.13Z" style="fill:#b1872f;"/><path d="M632.91,101.02c3.92-2.04,6.41-5.97,6.41-10.22,0-6.44-5.55-11.68-12.36-11.68s-12.36,5.24-12.36,11.68c0,4.25,2.49,8.18,6.41,10.22l-59.36,186.14h12.67l52.64-62.3,52.64,62.3h12.67l-59.36-186.14ZM653.2,193.79l24.89,78.06-45.43-53.76,20.53-24.3ZM650.07,183.98l-23.11,27.36-23.11-27.35,23.11-72.48,23.11,72.48ZM626.96,94c-1.91,0-3.47-1.44-3.47-3.2s1.56-3.2,3.47-3.2,3.47,1.44,3.47,3.2-1.56,3.2-3.47,3.2ZM621.24,218.1l-45.42,53.76,24.89-78.05,20.53,24.29Z" style="fill:#fff;"/><path d="M574.63,98.56c0-13.13,5.43-25.47,15.29-34.74.2-.18.31-.44.31-.71s-.11-.53-.31-.71l-1.7-1.6c-.38-.35-.96-.35-1.34,0-10.73,10.08-16.63,23.49-16.63,37.76s5.91,27.68,16.63,37.76c.19.18.43.27.67.27s.48-.09.67-.27l1.7-1.6c.2-.19.31-.44.31-.71s-.11-.53-.31-.71c-9.86-9.27-15.29-21.6-15.29-34.74Z" style="fill:#b1872f;"/><path d="M667.04,60.8c-.38-.35-.96-.35-1.34,0l-1.7,1.6c-.2.18-.31.44-.31.71s.11.53.31.71c9.86,9.27,15.29,21.6,15.29,34.74s-5.43,25.47-15.29,34.74c-.2.18-.31.44-.31.71s.11.53.31.71l1.7,1.6c.19.18.43.27.67.27s.48-.09.67-.27c10.73-10.08,16.63-23.49,16.63-37.76s-5.91-27.68-16.63-37.76Z" style="fill:#b1872f;"/><path d="M600.37,72.65c0-.27-.11-.53-.31-.71l-1.7-1.6c-.38-.35-.96-.35-1.34,0-8,7.52-12.41,17.55-12.41,28.22s4.41,20.7,12.41,28.22c.19.18.43.27.67.27s.48-.09.67-.27l1.7-1.6c.2-.18.31-.44.31-.71s-.11-.53-.31-.71c-7.15-6.72-11.09-15.67-11.09-25.2s3.94-18.47,11.09-25.2c.2-.18.31-.44.31-.71Z" style="fill:#b1872f;"/><path d="M656.89,70.34c-.38-.35-.96-.35-1.34,0l-1.7,1.6c-.2.19-.31.44-.31.71s.11.53.31.71c7.15,6.72,11.09,15.67,11.09,25.2s-3.94,18.47-11.09,25.2c-.2.18-.31.44-.31.71s.11.53.31.71l1.7,1.6c.19.18.43.27.67.27s.48-.09.67-.27c8-7.52,12.41-17.55,12.41-28.22s-4.41-20.7-12.41-28.22Z" style="fill:#b1872f;"/><path d="M890.14,196.75h-97.76v68.42c0,6.44.3,10.54.91,12.31.6,1.77,1.73,3.26,3.38,4.47,1.65,1.2,4.53,1.81,8.64,1.81v1.81h-46.04v-1.81c8.38.56,12.57-3.5,12.57-12.2v-143.1c0-8.13-.67-13.28-2-15.46-1.33-2.17-4.85-3.38-10.57-3.62v-1.81h46.04v1.81c-5.08.32-8.5,1.29-10.27,2.9-1.77,1.62-2.66,4.92-2.66,9.91v69.6h97.76v-63.68c0-7.25-.63-12.18-1.87-14.8-1.25-2.62-4.74-3.93-10.45-3.93v-1.81h45.43v1.81c-3.59,0-6.26.42-8.02,1.27-1.76.84-2.95,2.15-3.59,3.92-.64,1.77-.96,6.28-.96,13.53v136.58c0,7,.32,11.37.96,13.1.64,1.73,1.75,3.16,3.35,4.29,1.6,1.13,4.35,1.69,8.26,1.69v1.81h-45.43v-1.81c4.91,0,8.19-1.01,9.85-3.02,1.65-2.01,2.48-7.44,2.48-16.29v-67.7Z" style="fill:#fff;"/><path d="M635.33,332.81h.91c1.88,0,3.43.36,4.6,1.09.58.36,1.55,1.61,1.55,5.98v66.23l-71.46-76.1h-19.55v2.84l.95-.04c5.44-.24,8.78,1.24,10.24,4.53,1.54,3.51,2.33,8.13,2.33,13.73v65.67c0,5.32-.58,7.28-1.06,7.98-.35.52-1.54,1.38-5.48,1.38h-.91v2.8h20.46v-2.68l-.77-.12c-3.29-.49-4.3-.88-4.61-1.07-.46-.28-.84-.86-1.12-1.74-.32-1-.48-2.61-.48-4.79v-69.5l77.44,82.46v-90.67c0-4.16.75-5.8,1.39-6.45.92-.94,2.71-1.46,5.31-1.54l.88-.03v-2.77h-20.6v2.8Z" style="fill:#b1872f;"/><path d="M658.26,339.48l-.84,2.32v8.25c27.27-19.2,54.49-40.34,81.49-63.39,8.23-7.03,16.16-13.87,23.87-20.57v-10.82c-9.35,8.16-19.05,16.55-29.17,25.19-24.98,21.33-50.14,41.02-75.34,59.02Z" style="fill:url(#linear-gradient);"/><path d="M185.46,442.21c-82.44-54.29-61.25-176.39-61.02-177.62l-8.02-1.47c-.24,1.3-5.79,32.39-.79,70.97,6.67,51.43,29.27,91.17,65.35,114.93,49.82,32.81,128.67,40.91,216.32,22.23,51.35-10.95,104.63-30.82,158.52-58.92,0-2.39,0-5.57,0-9.23-54.51,28.79-108.38,49.12-160.22,60.17-85.53,18.23-162.12,10.56-210.13-21.06Z" style="fill:url(#linear-gradient-2);"/><path d="M1347.58,101.16C1309.15,37.23,1243.91.36,1168.59,0c-.78,0-1.55,0-2.32,0-101.82,0-155.68,32.29-233.96,101.44v10.88c81.54-72.87,132.2-104.16,233.85-104.16.79,0,1.6,0,2.39,0,72.41.34,135.11,35.77,172.04,97.2,38.47,64.01,41.25,143.98,7.25,208.71-54.34,103.46-148.19,154.01-312.9,168.29l-.38.03-1.64-12.9c-.21-1.69-1.77-2.89-3.46-2.68l-47.41,6.02c-1.69.21-2.89,1.77-2.68,3.46l.09.73,15.27-1.94.43,3.37-15.27,1.94h0s-1.65.21-1.65.21c-.5.06-.86.52-.8,1.03l2.86,22.53c.06.5.52.86,1.03.8l1.65-.21h0l15.27-1.94.43,3.37-15.27,1.94.09.73c.21,1.69,1.77,2.89,3.46,2.68l47.41-6.02c1.69-.21,2.89-1.77,2.68-3.46l-1.46-11.49.25-.02v-.08c167.69-14.57,263.44-66.43,319.21-172.61,35.31-67.24,32.45-150.27-7.48-216.71ZM980.05,481.66l15.27-1.94.43,3.37-15.27,1.94-.43-3.37ZM980.64,486.28l15.27-1.94.43,3.37-15.27,1.94-.43-3.37ZM981.23,490.9l15.27-1.94.43,3.37-15.27,1.94-.43-3.37ZM981.81,495.52l15.27-1.94.43,3.37-15.27,1.94-.43-3.37ZM982.83,503.51l-.43-3.37,15.27-1.94.43,3.37-15.27,1.94Z" style="fill:url(#linear-gradient-3);"/></g></svg>